<svg id="visual" viewBox="0 0 900 600" width="900" height="600" xmlns="http://www.w3.org/2000/svg" xmlns:xlink="http://www.w3.org/1999/xlink" version="1.1"><rect x="0" y="0" width="900" height="600" fill="#e4e4e4"></rect><path d="M0 404L37.5 385C75 366 150 328 225 323.8C300 319.7 375 349.3 450 348.7C525 348 600 317 675 307.8C750 298.7 825 311.3 862.5 317.7L900 324L900 0L862.5 0C825 0 750 0 675 0C600 0 525 0 450 0C375 0 300 0 225 0C150 0 75 0 37.5 0L0 0Z" fill="#59b084"></path><path d="M0 118L37.5 118.5C75 119 150 120 225 140.2C300 160.3 375 199.7 450 211.5C525 223.3 600 207.7 675 210.8C750 214 825 236 862.5 247L900 258L900 0L862.5 0C825 0 750 0 675 0C600 0 525 0 450 0C375 0 300 0 225 0C150 0 75 0 37.5 0L0 0Z" fill="#1a6c46"></path></svg>